<svg width="22" height="22" viewBox="0 0 22 22" fill="none" xmlns="http://www.w3.org/2000/svg">
<path d="M19.1667 0.5H2.83333C1.55 0.5 0.5 1.55 0.5 2.83333V19.1667C0.5 20.45 1.55 21.5 2.83333 21.5H19.1667C20.45 21.5 21.5 20.45 21.5 19.1667V2.83333C21.5 1.55 20.45 0.5 19.1667 0.5ZM8.08333 10.4167C8.08333 11.35 7.26667 12.1667 6.33333 12.1667H5.16667V14.5H3.41667V7.5H6.33333C7.26667 7.5 8.08333 8.31667 8.08333 9.25V10.4167ZM13.9167 12.75C13.9167 13.6833 13.1 14.5 12.1667 14.5H9.25V7.5H12.1667C13.1 7.5 13.9167 8.31667 13.9167 9.25V12.75ZM18.5833 9.25H16.8333V10.4167H18.5833V12.1667H16.8333V14.5H15.0833V7.5H18.5833V9.25ZM11 9.25H12.1667V12.75H11V9.25ZM5.16667 9.25H6.33333V10.4167H5.16667V9.25Z" fill="#0061A1"/>
</svg>
