<svg width="20" height="22" viewBox="0 0 20 22" fill="none" xmlns="http://www.w3.org/2000/svg">
<path d="M0.86 1.80007L13.43 0.00506684C13.5009 -0.00509794 13.5731 6.99554e-05 13.6418 0.0202212C13.7104 0.0403725 13.774 0.0750372 13.8281 0.121872C13.8823 0.168706 13.9257 0.226618 13.9555 0.291692C13.9854 0.356766 14.0009 0.427485 14.001 0.499067V21.3471C14.0008 21.4186 13.9854 21.4892 13.9556 21.5542C13.9258 21.6192 13.8825 21.677 13.8285 21.7238C13.7744 21.7707 13.711 21.8053 13.6425 21.8256C13.5739 21.8458 13.5018 21.8511 13.431 21.8411L0.859 20.0461C0.620619 20.0121 0.402492 19.8933 0.244689 19.7114C0.0868852 19.5296 2.31057e-06 19.2969 0 19.0561V2.79007C2.31057e-06 2.54928 0.0868852 2.31658 0.244689 2.13471C0.402492 1.95284 0.621619 1.83402 0.86 1.80007ZM15.001 1.92307H19.001C19.2662 1.92307 19.5206 2.02842 19.7081 2.21596C19.8956 2.4035 20.001 2.65785 20.001 2.92307V18.9231C20.001 19.1883 19.8956 19.4426 19.7081 19.6302C19.5206 19.8177 19.2662 19.9231 19.001 19.9231H15.001V1.92307ZM8.201 10.9231L11.001 6.92307H8.601L7.001 9.20907L5.401 6.92307H3.001L5.801 10.9231L3.001 14.9231H5.401L7.001 12.6371L8.601 14.9231H11.001L8.201 10.9231Z" fill="#0061A1"/>
</svg>
