<svg width="65" height="36" viewBox="0 0 65 36" fill="none" xmlns="http://www.w3.org/2000/svg">
    <path d="M3.9865 35.7271H0L28.4987 0H36.9218V7.5709C34.478 8.02748 32.7045 9.87983 32.7045 11.9755C32.7045 14.0712 34.4782 15.9235 36.9218 16.3804V24.4306H27.081V18.2157H18.2019L3.9865 35.7271ZM26.6865 7.46197L20.1751 15.0583H26.6865V7.46197ZM49.8585 24.6041H40.2987V16.1013C42.2475 15.3767 43.5067 13.7571 43.5067 11.9755C43.5067 10.1939 42.2475 8.57457 40.2987 7.85V0H64.5991V2.17941H49.8585V24.6041Z" fill="#0061A1"/>
    <path d="M45.6519 11.2617V13.626L57.4441 9.65624V7.49634L45.6519 11.2617Z" fill="#E72F2D"/>
</svg>
